<?xml version="1.0" encoding="utf-8"?>
<svg version="1.1" xmlns="http://www.w3.org/2000/svg" width="1056" height="284">
  <path d="M 99.648 67.596 C 100.496 67.589 101.344 67.582 102.218 67.575 C 105.008 67.557 107.799 67.561 110.59 67.566 C 112.537 67.562 114.485 67.557 116.433 67.551 C 120.51 67.542 124.588 67.544 128.666 67.554 C 133.882 67.566 139.098 67.545 144.314 67.516 C 148.335 67.498 152.356 67.498 156.377 67.504 C 158.3 67.504 160.223 67.498 162.146 67.485 C 164.838 67.471 167.53 67.481 170.222 67.498 C 171.405 67.484 171.405 67.484 172.611 67.469 C 178.173 67.543 181.506 68.644 186 72 C 190.073 77.332 189.43 83.533 189.404 89.953 C 189.411 91.152 189.418 92.351 189.425 93.587 C 189.44 96.863 189.441 100.14 189.436 103.417 C 189.433 106.158 189.439 108.899 189.445 111.64 C 189.459 118.109 189.457 124.578 189.446 131.047 C 189.434 137.709 189.448 144.37 189.475 151.032 C 189.497 156.763 189.504 162.494 189.498 168.225 C 189.495 171.643 189.497 175.061 189.514 178.479 C 189.529 182.292 189.519 186.105 189.502 189.918 C 189.511 191.043 189.521 192.168 189.531 193.327 C 189.47 199.762 188.894 203.794 185 209 C 180.558 212.056 176.949 212.359 171.633 212.293 C 170.953 212.289 170.273 212.285 169.573 212.28 C 167.423 212.264 165.274 212.226 163.125 212.188 C 161.659 212.172 160.193 212.159 158.726 212.147 C 155.151 212.114 151.575 212.062 148 212 C 147.99 211.178 147.981 210.356 147.971 209.509 C 147.918 205.776 147.834 202.045 147.75 198.313 C 147.736 197.019 147.721 195.725 147.707 194.393 C 147.658 192.522 147.658 192.522 147.609 190.613 C 147.578 188.893 147.578 188.893 147.546 187.138 C 146.892 183.38 145.633 181.711 143 179 C 139.034 176.749 135.503 176.526 131 177 C 127.296 179.027 125.346 180.481 123 184 C 122.631 187.004 122.631 187.004 122.586 190.418 C 122.547 191.672 122.508 192.925 122.469 194.217 C 122.422 196.182 122.422 196.182 122.375 198.188 C 122.337 199.523 122.298 200.858 122.258 202.193 C 122.163 205.462 122.078 208.731 122 212 C 117.713 212.1 113.427 212.172 109.14 212.22 C 107.684 212.24 106.228 212.267 104.772 212.302 C 89.318 212.662 89.318 212.662 84 208 C 80.131 202.347 80.569 196.638 80.596 190.047 C 80.585 188.249 80.585 188.249 80.575 186.414 C 80.56 183.137 80.558 179.86 80.564 176.583 C 80.567 173.842 80.561 171.101 80.555 168.36 C 80.541 161.891 80.542 155.422 80.554 148.953 C 80.565 142.291 80.551 135.63 80.524 128.968 C 80.502 123.237 80.496 117.506 80.501 111.775 C 80.505 108.357 80.502 104.939 80.485 101.521 C 80.47 97.708 80.481 93.896 80.498 90.082 C 80.488 88.957 80.479 87.833 80.469 86.674 C 80.529 80.268 80.939 76.08 85 71 C 89.739 67.655 94.06 67.564 99.648 67.596 Z M 98.734 99.934 C 98.739 101.125 98.745 102.281 98.75 103.438 C 98.731 107.686 98.611 109.417 101 113 C 101.997 113.136 102.965 113.267 103.933 113.398 C 105.125 113.391 106.281 113.383 107.437 113.375 C 110.685 113.397 113.064 113.552 115.887 111.887 C 117 110 117 110 117.398 106.934 C 117.39 105.745 117.383 104.591 117.375 103.438 C 117.398 99.934 117.398 99.934 117 97 C 114 95 114 95 110.933 94.734 C 109.745 94.74 108.591 94.745 107.437 94.75 C 106.246 94.745 105.09 94.74 103.933 94.734 C 99.892 95.1 99.1 95.893 98.734 99.934 Z M 125.734 99.934 C 125.739 101.125 125.745 102.281 125.75 103.438 C 125.731 107.686 125.611 109.417 128 113 C 128.997 113.136 129.965 113.267 130.933 113.398 C 132.125 113.391 133.281 113.383 134.437 113.375 C 137.685 113.397 140.064 113.552 142.887 111.887 C 144 110 144 110 144.398 106.934 C 144.39 105.745 144.383 104.591 144.375 103.438 C 144.398 99.934 144.398 99.934 144 97 C 141 95 141 95 137.933 94.734 C 136.745 94.74 135.591 94.745 134.437 94.75 C 133.246 94.745 132.09 94.74 130.933 94.734 C 126.892 95.1 126.1 95.893 125.734 99.934 Z M 152.734 99.934 C 152.739 101.125 152.745 102.281 152.75 103.438 C 152.731 107.686 152.611 109.417 155 113 C 155.997 113.136 156.965 113.267 157.933 113.398 C 159.125 113.391 160.281 113.383 161.437 113.375 C 164.685 113.397 167.064 113.552 169.887 111.887 C 171 110 171 110 171.398 106.934 C 171.39 105.745 171.383 104.591 171.375 103.438 C 171.398 99.934 171.398 99.934 171 97 C 168 95 168 95 164.933 94.734 C 163.745 94.74 162.591 94.745 161.437 94.75 C 160.246 94.745 159.09 94.74 157.933 94.734 C 153.892 95.1 153.1 95.893 152.734 99.934 Z M 152.734 135.934 C 152.739 137.125 152.745 138.281 152.75 139.438 C 152.731 143.686 152.611 145.417 155 149 C 155.997 149.136 156.965 149.267 157.933 149.398 C 159.125 149.391 160.281 149.383 161.437 149.375 C 164.685 149.397 167.064 149.552 169.887 147.887 C 171 146 171 146 171.398 142.934 C 171.39 141.745 171.383 140.591 171.375 139.438 C 171.398 135.934 171.398 135.934 171 133 C 168 131 168 131 164.933 130.734 C 163.745 130.74 162.591 130.745 161.437 130.75 C 160.246 130.745 159.09 130.74 157.933 130.734 C 153.892 131.1 153.1 131.893 152.734 135.934 Z M 125.734 135.934 C 125.739 137.125 125.745 138.281 125.75 139.438 C 125.731 143.686 125.611 145.417 128 149 C 128.997 149.136 129.965 149.267 130.933 149.398 C 132.125 149.391 133.281 149.383 134.437 149.375 C 137.685 149.397 140.064 149.552 142.887 147.887 C 144 146 144 146 144.398 142.934 C 144.39 141.745 144.383 140.591 144.375 139.438 C 144.398 135.934 144.398 135.934 144 133 C 141 131 141 131 137.933 130.734 C 136.745 130.74 135.591 130.745 134.437 130.75 C 133.246 130.745 132.09 130.74 130.933 130.734 C 126.892 131.1 126.1 131.893 125.734 135.934 Z M 98.734 135.934 C 98.739 137.125 98.745 138.281 98.75 139.438 C 98.731 143.686 98.611 145.417 101 149 C 101.997 149.136 102.965 149.267 103.933 149.398 C 105.125 149.391 106.281 149.383 107.437 149.375 C 110.685 149.397 113.064 149.552 115.887 147.887 C 117 146 117 146 117.398 142.934 C 117.39 141.745 117.383 140.591 117.375 139.438 C 117.398 135.934 117.398 135.934 117 133 C 114 131 114 131 110.933 130.734 C 109.745 130.74 108.591 130.745 107.437 130.75 C 106.246 130.745 105.09 130.74 103.933 130.734 C 99.892 131.1 99.1 131.893 98.734 135.934 Z" fill="#F2CD49"/>
  <path d="M 887 86.829 C 947.048 86.829 947.048 86.829 961.207 99.86 C 966.041 104.954 969.377 110.331 972 116.829 C 972.32 117.59 972.639 118.35 972.969 119.134 C 978.194 134.276 976.027 152.528 969.645 166.876 C 963.451 179.164 954.359 185.531 941.613 190.032 C 924.191 195.345 905.214 191.829 887 191.829 C 887 157.179 887 122.529 887 86.829 Z M 909 172.829 C 924.282 172.829 932.619 175.236 944 167.829 C 949.664 162.475 952.515 155.363 954 147.829 C 955.303 133.999 953.484 123.219 944.875 112.079 C 936.889 105.829 936.889 105.829 909 105.829 C 909 128.609 909 150.719 909 172.829 Z" fill="#EFCB49"/>
  <path d="M 215.019 87.768 C 274.706 87.768 274.706 87.768 284.363 96.033 C 289.736 101.66 291.341 106.527 291.581 114.33 C 291.3 121.554 290.444 126.459 285.183 131.541 C 281.306 134.705 278.147 136.511 273.019 136.768 C 273.019 137.428 273.019 138.088 273.019 138.768 C 273.844 138.664 274.669 138.561 275.519 138.455 C 281.729 139.009 286.176 142.584 290.331 147.08 C 294.93 152.894 296.628 158.793 296.367 166.186 C 295.347 173.755 291.91 180.833 286.019 185.768 C 276.239 191.938 266.967 193.068 255.644 192.963 C 254.093 192.96 254.093 192.96 252.511 192.957 C 248.68 192.946 244.85 192.918 241.019 192.893 C 232.439 192.851 223.859 192.81 215.019 192.768 C 215.019 158.118 215.019 123.468 215.019 87.768 Z M 237.019 131.768 C 242.416 131.831 242.416 131.831 247.706 131.893 C 249.394 131.92 249.394 131.92 251.049 131.948 C 252.397 131.955 252.397 131.955 253.718 131.963 C 257.659 132.009 260.444 131.457 264.019 129.768 C 267.07 127.319 269.594 124.579 270.503 120.705 C 270.671 116.267 269.839 113.152 267.019 109.768 C 262.318 105.506 258.517 105.342 252.275 105.407 C 251.041 105.445 249.842 105.481 248.644 105.518 C 242.773 105.644 242.773 105.644 237.019 105.768 C 237.019 114.608 237.019 123.188 237.019 131.768 Z M 237.019 174.768 C 243.71 174.831 243.71 174.831 250.269 174.893 C 251.684 174.911 253.057 174.93 254.43 174.948 C 255.549 174.953 256.636 174.958 257.722 174.963 C 263.646 175.019 266.343 174.253 270.769 170.33 C 273.146 167.359 273.418 164.907 273.519 161.143 C 273.472 156.961 272.997 154.757 270.019 151.768 C 264.62 146.988 259.85 146.228 252.753 146.317 C 250.867 146.387 250.867 146.387 249.019 146.455 C 244.939 146.561 240.979 146.664 237.019 146.768 C 237.019 156.288 237.019 165.528 237.019 174.768 Z" fill="#FAFBFC"/>
  <path d="M 492.246 115.705 C 497.013 119.144 499.505 123.263 501 128.97 C 501.66 128.97 502.32 128.97 503 128.97 C 503.278 127.949 503.278 127.949 503.563 126.908 C 506.712 120.473 512.001 116.231 518.613 113.627 C 525.919 111.618 533.244 112.661 540 115.97 C 546.207 119.754 549.655 125.174 552 131.97 C 552.64 136.759 552.585 141.466 552.488 146.291 C 552.479 147.644 552.472 148.997 552.467 150.351 C 552.448 153.879 552.399 157.406 552.343 160.934 C 552.292 164.548 552.269 168.161 552.244 171.775 C 552.191 178.841 552.103 185.905 552 192.97 C 545.07 192.97 538.14 192.97 531 192.97 C 530.985 191.361 530.971 189.751 530.956 188.093 C 530.898 182.12 530.821 176.147 530.738 170.174 C 530.704 167.589 530.676 165.004 530.654 162.419 C 530.62 158.703 530.568 154.987 530.512 151.271 C 530.505 150.116 530.499 148.96 530.492 147.77 C 530.473 146.689 530.453 145.609 530.432 144.495 C 530.421 143.547 530.41 142.599 530.399 141.622 C 529.923 138.456 528.861 136.556 527 133.97 C 522.964 131.549 518.588 131.367 514 131.97 C 510.145 133.647 508.537 135.108 507 138.97 C 506.675 141.554 506.675 141.554 506.681 144.382 C 506.661 145.462 506.641 146.543 506.621 147.657 C 506.609 148.817 506.598 149.978 506.586 151.174 C 506.567 152.366 506.547 153.559 506.527 154.788 C 506.467 158.599 506.421 162.41 506.375 166.22 C 506.337 168.804 506.298 171.387 506.258 173.97 C 506.162 180.304 506.078 186.637 506 192.97 C 499.07 192.97 492.14 192.97 485 192.97 C 484.996 191.33 484.992 189.691 484.988 188.001 C 484.966 181.916 484.912 175.831 484.847 169.747 C 484.824 167.113 484.81 164.48 484.804 161.846 C 484.795 158.06 484.754 154.276 484.707 150.49 C 484.711 149.313 484.715 148.135 484.719 146.923 C 484.809 140.237 484.809 140.237 481.518 134.75 C 480.687 134.163 479.856 133.576 479 132.97 C 478.67 132.64 478.34 132.31 478 131.97 C 473.776 131.517 470.072 131.528 466.125 133.158 C 463 135.823 461.227 138.484 460.601 142.584 C 460.59 143.514 460.579 144.445 460.568 145.403 C 460.548 146.464 460.528 147.525 460.508 148.618 C 460.498 150.318 460.498 150.318 460.488 152.052 C 460.47 153.222 460.452 154.391 460.434 155.596 C 460.38 159.325 460.346 163.054 460.313 166.783 C 460.279 169.314 460.245 171.844 460.209 174.375 C 460.124 180.573 460.057 186.772 460 192.97 C 453.07 192.97 446.14 192.97 439 192.97 C 439 167.23 439 141.49 439 114.97 C 445.27 114.97 451.54 114.97 458 114.97 C 458.66 118.93 459.32 122.89 460 126.97 C 460.516 126.104 461.031 125.238 461.563 124.345 C 468.659 113.725 480.625 109.037 492.246 115.705 Z" fill="#FCFCFD"/>
  <path d="M 601.813 112.078 C 602.6 112.084 603.387 112.089 604.197 112.095 C 614.136 112.301 622.802 114.094 630.001 121.391 C 634.478 127.186 636.13 131.85 636.114 139.169 C 636.114 140.91 636.114 140.91 636.114 142.687 C 636.109 143.935 636.103 145.183 636.098 146.469 C 636.097 147.75 636.095 149.032 636.094 150.353 C 636.09 153.752 636.08 157.152 636.069 160.552 C 636.059 164.024 636.054 167.496 636.049 170.969 C 636.039 177.775 636.021 184.583 636 191.391 C 629.4 191.391 622.8 191.391 616 191.391 C 615.67 188.091 615.34 184.791 615 181.391 C 614.175 182.463 613.35 183.536 612.5 184.641 C 609.095 189.068 604.311 191.787 598.828 192.787 C 596.577 192.96 594.382 192.996 592.125 192.953 C 591.338 192.943 590.551 192.933 589.74 192.922 C 582.445 192.657 576.585 191.069 571.364 185.71 C 566.159 179 565.056 171.705 566 163.391 C 567.943 156.857 571.945 152.661 577.823 149.37 C 584.475 146.164 591.099 145.203 598.375 144.266 C 600.697 143.957 603.017 143.642 605.336 143.32 C 606.353 143.189 607.369 143.056 608.416 142.921 C 611.223 142.514 611.223 142.514 614 140.391 C 614.598 136.548 614.309 134.869 612.188 131.578 C 609.043 128.432 606.402 128.218 602.125 128.141 C 597.889 128.165 595.456 128.799 592 131.39 C 591.34 131.39 590.68 131.39 590 131.39 C 589.01 133.866 589.01 133.866 588 136.391 C 585.396 136.082 582.792 135.769 580.188 135.453 C 579.45 135.366 578.712 135.279 577.952 135.189 C 574.833 134.808 571.989 134.387 569.001 133.391 C 569.001 127.542 572.006 124.48 575.821 120.441 C 583.15 113.545 592.076 112.005 601.813 112.078 Z M 605.325 156.519 C 604.449 156.688 603.6 156.852 602.751 157.016 C 595.895 158.169 590.523 159.788 586.001 165.391 C 585.261 169.582 585.627 170.83 588.001 174.391 C 591.343 177.244 594.02 178.697 598.376 178.953 C 604.882 178.635 609.083 175.356 613.501 170.828 C 615.617 165.977 615.617 165.977 615.001 155.391 C 611.645 155.391 608.615 155.901 605.325 156.519 Z" fill="#FCFCFD"/>
  <path d="M 715 86.001 C 721.93 86.001 728.86 86.001 736 86.001 C 736.33 104.481 736.66 122.961 737 142.001 C 743.952 134.331 743.952 134.331 750.563 126.439 C 751.326 125.534 752.089 124.629 752.875 123.696 C 755.04 121.097 755.04 121.097 756.5 118.306 C 758.354 115.349 760.079 113.907 763 112.001 C 765.812 111.486 765.812 111.486 768.84 111.446 C 769.925 111.429 771.009 111.411 772.127 111.392 C 777.095 111.46 782.044 111.66 787 112.001 C 783.115 117.319 779.045 122.378 774.688 127.314 C 769.324 133.44 764.105 139.656 759 146.001 C 764.277 157.176 772.649 167.279 779.73 177.364 C 780.283 178.151 780.835 178.939 781.404 179.75 C 782.436 181.206 783.48 182.654 784.538 184.092 C 788 188.804 788 188.804 788 191.001 C 767.038 193.846 767.038 193.846 760.767 189.428 C 757.003 185.26 754.546 180.383 752.154 175.336 C 750.479 171.947 748.41 168.977 746.25 165.876 C 745.167 164.251 744.083 162.626 743 161.001 C 740.532 162.153 738.952 163.049 737 165.001 C 736.628 167.717 736.628 167.717 736.586 170.884 C 736.547 172.05 736.509 173.217 736.469 174.419 C 736.438 175.642 736.407 176.866 736.375 178.126 C 736.336 179.357 736.298 180.588 736.258 181.856 C 736.163 184.904 736.081 187.953 736 191.001 C 729.07 191.001 722.14 191.001 715 191.001 C 715 156.351 715 121.701 715 86.001 Z" fill="#FCFCFD"/>
  <path d="M 357 113.97 C 377.79 113.97 398.58 113.97 420 113.97 C 420 130.805 420 130.805 415.375 135.783 C 414.36 136.933 413.347 138.086 412.336 139.24 C 411.794 139.836 411.252 140.433 410.694 141.047 C 407.614 144.543 404.831 148.272 402 151.97 C 396.039 159.668 390.015 167.315 384 174.97 C 402.315 175.465 402.315 175.465 421 175.97 C 421 181.58 421 187.19 421 192.97 C 399.55 192.97 378.1 192.97 356 192.97 C 356 178.97 356 178.97 358.02 175.252 C 358.941 174.334 359.863 173.416 360.813 172.47 C 361.835 171.396 362.854 170.319 363.871 169.24 C 364.394 168.703 364.917 168.166 365.457 167.613 C 367.96 164.948 370.155 162.06 372.375 159.158 C 377.037 153.148 381.822 147.246 386.673 141.387 C 387.194 140.753 387.714 140.12 388.25 139.467 C 388.938 138.634 388.938 138.634 389.641 137.785 C 391.258 135.627 392.613 133.283 394 130.97 C 381.79 130.97 369.58 130.97 357 130.97 C 357 125.36 357 119.75 357 113.97 Z" fill="#FCFCFD"/>
  <path d="M 847 87.97 C 853.93 87.97 860.86 87.97 868 87.97 C 868 122.62 868 157.27 868 192.97 C 861.07 192.97 854.14 192.97 847 192.97 C 847 158.32 847 123.67 847 87.97 Z" fill="#F2CD49"/>
  <path d="M 701 113.97 C 701 120.24 701 126.51 701 132.97 C 693.875 132.72 693.875 132.72 691.667 132.61 C 686.567 132.524 683.838 133.687 680 136.97 C 675.209 142.419 675.399 147.441 675.391 154.494 C 675.374 155.595 675.358 156.696 675.341 157.831 C 675.292 161.336 675.271 164.84 675.25 168.345 C 675.222 170.727 675.192 173.108 675.16 175.49 C 675.086 181.317 675.037 187.143 675 192.97 C 668.07 192.97 661.14 192.97 654 192.97 C 654 167.23 654 141.49 654 114.97 C 660.6 114.97 667.2 114.97 674 114.97 C 674.33 118.93 674.66 122.89 675 126.97 C 675.526 125.671 675.526 125.671 676.063 124.345 C 678.869 119.456 682.549 116.353 687.438 113.595 C 692.045 112.472 696.465 112.459 701 113.97 Z" fill="#FCFDFD"/>
  <path d="M 317 113.97 C 323.93 113.97 330.86 113.97 338 113.97 C 338 140.04 338 166.11 338 192.97 C 331.07 192.97 324.14 192.97 317 192.97 C 317 166.9 317 140.83 317 113.97 Z" fill="#FBFCFC"/>
  <path d="M 819 169.649 C 822 172.149 822 172.149 824 174.649 C 824.33 174.979 824.66 175.309 825 175.649 C 825.538 179.73 825.934 183.899 823.953 187.61 C 821.538 190.522 819.602 192.476 815.793 192.888 C 808.779 193.087 808.779 193.087 805 190.962 C 802.111 187.621 801.181 185.068 800.625 180.712 C 801.224 175.821 803.56 172.925 807.188 169.712 C 811.299 168.159 814.809 168.374 819 169.649 Z" fill="#EECB4A"/>
  <path d="M 333 84 C 335.934 85.796 337.472 86.944 339 90 C 339.681 96.813 339.681 96.813 337.953 99.824 C 335.608 102.672 333.754 104.79 330.012 105.238 C 325.949 105.368 323.628 105.374 320.063 103.25 C 317.223 100.152 316.195 98.283 315.563 94.125 C 316.178 89.732 317.919 88.154 321 85 C 324.697 83.151 328.965 83.524 333 84 Z" fill="#F8FAFB"/>
</svg>