<svg xmlns="http://www.w3.org/2000/svg" width="1024" height="1024" viewBox="0 0 1024 1024">
<g>
<path d="M 605.50 949.21 C589.72,950.54 520.05,951.06 511.00,949.91 C507.42,949.46 498.42,948.60 491.00,948.00 C483.58,947.39 473.45,946.27 468.50,945.51 C463.55,944.74 457.70,943.85 455.50,943.52 C437.48,940.87 415.88,936.60 407.50,934.04 C405.85,933.53 401.58,932.39 398.00,931.50 C390.29,929.58 389.53,929.35 371.50,923.48 C359.81,919.68 348.69,915.58 337.50,910.95 C336.40,910.49 328.08,906.53 319.00,902.13 C294.07,890.06 275.94,878.62 254.13,861.20 C245.54,854.33 222.88,831.56 216.62,823.50 C204.01,807.25 198.10,797.90 188.54,779.00 C182.55,767.18 181.00,763.88 181.00,762.93 C181.00,762.45 179.90,759.68 178.56,756.78 C174.87,748.79 169.02,730.95 166.99,721.50 C166.52,719.30 165.39,714.35 164.49,710.50 C159.95,691.17 158.65,676.80 158.62,645.50 C158.59,616.54 160.17,596.96 163.81,581.00 C164.37,578.53 165.36,573.80 165.99,570.50 C167.57,562.29 168.43,558.88 171.43,548.94 C172.84,544.23 174.00,539.65 174.00,538.75 C174.00,537.85 174.45,536.84 175.00,536.50 C175.55,536.16 176.00,534.63 176.00,533.11 C176.00,531.58 176.31,530.02 176.69,529.65 C177.37,528.96 178.74,525.43 181.58,517.00 C183.33,511.81 183.55,511.28 188.39,500.29 C190.37,495.77 192.01,491.72 192.02,491.29 C192.04,490.21 204.93,464.77 208.89,458.00 C210.66,454.98 212.36,451.71 212.67,450.75 C212.98,449.79 213.63,449.00 214.12,449.00 C214.60,449.00 215.00,448.55 215.00,448.01 C215.00,446.81 232.22,419.75 235.68,415.50 C237.03,413.85 240.35,409.58 243.07,406.00 C245.79,402.42 250.37,396.58 253.25,393.00 C260.07,384.54 299.61,345.01 308.00,338.27 C320.40,328.31 322.77,326.48 328.47,322.50 C331.62,320.30 334.71,318.02 335.35,317.44 C336.95,315.96 346.87,309.79 350.50,308.02 C352.15,307.21 354.67,305.61 356.10,304.47 C357.53,303.32 361.36,301.11 364.60,299.57 C367.85,298.02 372.08,295.70 374.00,294.42 C375.92,293.13 384.25,289.12 392.50,285.49 C400.75,281.87 408.40,278.50 409.50,278.01 C412.61,276.62 430.98,270.42 436.00,269.08 C438.48,268.41 441.85,267.46 443.50,266.97 C448.48,265.50 465.17,261.77 470.50,260.94 C480.30,259.41 488.69,258.09 502.50,255.90 C514.89,253.94 520.69,253.66 553.00,253.51 C587.40,253.35 592.60,253.06 597.50,251.01 C598.60,250.54 600.40,249.94 601.50,249.67 C603.52,249.17 608.80,247.37 612.50,245.92 C613.60,245.49 615.85,244.93 617.50,244.68 C619.15,244.43 623.08,243.51 626.24,242.63 C647.40,236.74 680.11,234.13 710.88,235.87 C729.06,236.90 739.56,237.98 744.50,239.33 C745.60,239.63 750.10,240.64 754.50,241.58 C761.57,243.09 764.68,243.85 775.00,246.57 C779.63,247.79 797.46,254.13 802.00,256.17 C804.47,257.28 808.08,258.87 810.00,259.70 C815.54,262.09 831.13,270.10 835.23,272.66 C837.28,273.95 839.19,275.00 839.47,275.00 C840.42,275.00 862.46,289.91 867.15,293.72 C869.71,295.80 874.21,299.44 877.15,301.82 C884.59,307.81 906.42,329.46 911.14,335.50 C913.28,338.25 917.06,342.98 919.54,346.00 C938.04,368.59 958.98,409.35 967.06,438.50 C970.85,452.18 973.34,462.36 974.04,467.00 C974.49,470.02 975.59,476.95 976.49,482.39 C977.51,488.56 977.76,492.64 977.18,493.22 C976.59,493.81 974.78,493.42 972.37,492.19 C969.05,490.49 962.85,488.30 949.50,484.09 C942.43,481.85 913.15,474.79 895.50,471.06 C880.72,467.93 867.28,465.05 860.50,463.54 C857.20,462.81 852.25,461.73 849.50,461.14 C839.89,459.09 821.47,454.92 818.00,454.01 C816.08,453.50 807.97,451.47 800.00,449.48 C786.72,446.18 779.32,444.16 767.00,440.45 C727.28,428.49 687.50,411.89 666.79,398.64 C663.66,396.64 660.81,395.00 660.45,395.00 C659.57,395.00 644.80,384.59 638.00,379.19 C621.79,366.30 596.00,337.34 596.00,332.02 C596.00,331.46 595.66,331.00 595.25,330.99 C594.84,330.99 594.01,329.98 593.42,328.74 C592.83,327.51 590.79,323.58 588.89,320.00 C585.43,313.48 581.18,302.97 579.00,295.50 C578.35,293.30 577.26,289.70 576.57,287.50 L 575.32 283.50 L 560.91 283.17 C552.98,282.99 542.00,283.34 536.50,283.95 C525.87,285.12 497.85,289.58 492.00,291.03 C490.08,291.51 483.77,293.07 478.00,294.51 C466.36,297.39 465.17,297.74 453.00,301.89 C427.24,310.65 400.46,323.77 380.01,337.65 C362.07,349.83 357.08,353.92 342.45,368.50 C331.30,379.61 326.29,385.52 313.20,403.00 C307.47,410.66 293.21,437.36 289.17,448.00 C285.00,459.00 280.25,474.74 274.99,495.00 C273.49,500.81 269.29,522.03 268.18,529.50 C267.60,533.35 266.64,539.88 266.03,544.00 C260.62,580.63 262.68,625.62 271.18,656.50 C278.91,684.55 290.99,708.65 308.04,730.00 C315.73,739.64 331.39,755.16 340.87,762.54 C344.38,765.27 348.72,768.74 350.51,770.25 C352.30,771.76 354.07,773.00 354.44,773.00 C354.81,773.00 357.90,774.91 361.30,777.24 C368.61,782.25 375.84,786.26 389.50,792.89 C403.55,799.70 410.89,803.00 412.04,803.00 C412.58,803.00 413.81,803.43 414.76,803.95 C416.89,805.10 428.05,809.32 433.50,811.03 C435.70,811.71 438.40,812.63 439.50,813.06 C443.81,814.74 458.20,819.00 459.58,819.00 C460.37,819.00 461.81,819.40 462.76,819.88 C465.51,821.28 481.49,825.04 497.00,827.95 C499.48,828.41 504.88,829.54 509.00,830.45 C516.14,832.04 521.33,832.80 539.50,834.91 C587.75,840.52 600.62,841.37 637.00,841.38 C662.82,841.38 673.82,840.98 685.00,839.62 C727.46,834.47 755.88,824.96 775.12,809.46 C791.40,796.35 799.00,777.42 796.13,757.14 C794.50,745.64 792.04,737.86 786.02,725.25 C783.32,719.61 781.38,715.00 781.70,715.00 C782.48,715.00 793.93,724.96 802.36,732.98 C810.04,740.28 820.38,752.44 824.06,758.50 C830.41,768.93 834.86,777.83 836.09,782.50 C836.52,784.15 837.79,788.88 838.92,793.00 C843.39,809.37 840.81,829.00 832.00,845.77 C819.05,870.41 794.43,891.87 758.09,910.21 C736.81,920.95 720.30,927.12 688.00,936.43 C679.10,938.99 667.07,941.31 649.04,943.92 C644.94,944.51 640.89,945.20 640.04,945.45 C637.93,946.07 621.22,947.89 605.50,949.21 ZM 670.36 817.36 C664.18,818.21 609.52,818.18 608.67,817.33 C608.30,816.97 608.00,767.70 608.00,707.85 L 608.00 599.04 L 605.75 598.58 C599.93,597.39 578.47,594.56 563.50,593.01 C546.33,591.24 536.46,589.78 535.50,588.86 C534.38,587.78 533.46,459.05 534.52,450.24 L 535.15 444.99 L 674.50 445.50 L 675.01 816.73 ZM 594.75 712.23 C594.53,805.42 594.34,816.50 592.95,816.77 C592.10,816.93 591.20,816.88 590.95,816.64 C590.70,816.41 583.97,815.68 576.00,815.01 C568.03,814.35 557.90,813.19 553.50,812.42 C549.10,811.66 544.04,811.03 542.26,811.02 C540.48,811.01 537.11,810.55 534.76,810.00 C531.04,809.13 511.11,805.65 502.50,804.37 C500.85,804.12 497.92,803.51 496.00,803.01 C494.08,802.50 487.55,800.93 481.50,799.51 C475.45,798.09 468.92,796.52 467.00,796.01 C465.08,795.51 462.25,794.84 460.72,794.52 C459.20,794.21 457.06,793.06 455.97,791.97 C454.02,790.02 453.99,788.52 454.24,699.24 L 454.50 608.50 L 524.75 608.24 L 595.01 607.99 ZM 220.25 410.80 C214.13,415.65 211.59,415.18 203.43,407.75 C191.88,397.21 183.78,388.25 177.31,378.82 C171.25,369.98 162.00,352.29 162.00,349.52 C162.00,348.75 161.60,347.87 161.12,347.57 C160.63,347.27 159.99,345.78 159.70,344.26 C159.40,342.74 158.64,339.70 158.00,337.50 C154.16,324.26 153.64,319.98 153.28,299.10 C152.91,276.68 153.24,273.95 158.63,255.00 C160.85,247.23 160.98,246.90 167.95,232.82 C173.90,220.78 183.77,206.27 191.87,197.63 C197.77,191.34 209.99,182.06 211.57,182.67 C212.37,182.97 213.27,184.41 213.57,185.86 C214.05,188.15 218.39,204.45 220.92,213.50 C221.38,215.15 223.89,223.02 226.48,231.00 C231.58,246.64 235.26,258.56 237.46,266.50 C244.16,290.64 243.86,289.30 247.08,309.50 C248.82,320.40 249.09,325.56 248.71,341.50 C248.45,352.10 247.72,362.27 247.04,364.50 C246.38,366.70 245.38,370.30 244.83,372.50 C241.92,384.18 229.58,403.41 220.25,410.80 ZM 350.20 295.60 C334.85,300.91 330.98,299.97 327.99,290.19 C327.37,288.16 326.49,285.60 326.04,284.50 C317.64,263.91 317.31,217.87 325.40,196.00 C326.32,193.52 327.75,189.48 328.59,187.00 C335.18,167.62 354.45,140.28 369.50,128.97 C372.25,126.91 375.49,124.27 376.71,123.11 C377.92,121.95 379.23,121.00 379.61,121.00 C380.00,121.00 381.79,119.88 383.59,118.50 C385.39,117.12 387.31,116.00 387.85,116.00 C388.39,116.00 388.98,115.62 389.17,115.16 C389.47,114.41 401.60,107.96 406.50,105.96 C410.31,104.40 420.51,100.83 424.00,99.84 C435.49,96.58 448.00,95.09 448.00,96.98 C448.00,97.62 446.90,101.43 445.55,105.45 C443.14,112.63 440.88,121.62 437.49,137.50 C436.55,141.90 434.98,149.10 433.99,153.50 C433.01,157.90 431.67,164.20 431.02,167.50 C430.37,170.80 429.20,175.75 428.44,178.50 C425.61,188.61 423.79,195.56 423.32,198.00 C423.06,199.38 422.47,201.40 422.01,202.50 C421.54,203.60 419.77,208.69 418.07,213.81 C411.68,233.02 404.92,246.99 395.47,260.50 C386.25,273.68 379.83,279.55 362.84,290.37 C361.22,291.40 355.53,293.76 350.20,295.60 ZM 532.00 247.21 C529.29,248.30 510.76,249.21 507.50,248.41 C506.40,248.14 504.49,247.71 503.26,247.44 C498.82,246.50 497.84,241.38 498.35,222.00 C498.91,201.26 500.01,193.53 504.49,179.00 C507.68,168.66 514.89,153.68 520.70,145.32 C523.07,141.92 525.00,138.70 525.00,138.15 C525.00,137.61 525.35,137.02 525.78,136.83 C526.20,136.65 529.80,132.68 533.77,128.00 C537.74,123.32 541.57,119.05 542.28,118.50 C542.99,117.95 546.27,115.19 549.57,112.37 C556.68,106.29 566.82,99.65 576.50,94.74 C589.85,87.97 596.66,85.63 616.26,81.10 C618.95,80.48 630.42,80.00 642.51,80.00 C666.40,80.00 666.49,80.03 661.66,86.41 C659.16,89.70 645.85,113.53 639.54,126.00 C630.16,144.54 621.60,160.72 619.88,163.15 C618.84,164.61 618.00,166.07 618.00,166.39 C618.00,168.21 602.85,191.33 594.66,202.00 C588.00,210.67 574.91,224.06 567.50,229.79 C560.71,235.03 545.74,242.98 539.00,244.91 C536.53,245.63 533.38,246.66 532.00,247.21 ZM 706.27 812.53 C699.54,813.89 692.84,815.00 691.38,815.00 L 688.73 815.00 L 689.41 800.75 C689.78,792.91 690.50,767.38 691.01,744.00 C692.38,681.44 693.23,656.24 694.01,654.98 C694.51,654.18 705.00,653.89 730.55,653.96 C750.27,654.02 766.65,654.31 766.95,654.61 C767.25,654.92 767.64,684.08 767.80,719.42 L 768.11 783.67 L 761.71 789.65 C750.45,800.19 734.25,806.87 706.27,812.53 ZM 157.19 547.75 C155.65,550.19 152.97,550.48 147.00,548.83 C145.07,548.30 142.15,547.64 140.50,547.36 C138.85,547.09 136.60,546.49 135.50,546.03 C134.40,545.57 130.72,544.21 127.32,543.00 C123.92,541.80 118.13,539.05 114.46,536.90 C110.78,534.76 107.49,532.99 107.14,532.97 C105.46,532.88 88.13,517.91 84.55,513.45 C76.03,502.83 73.84,499.38 68.44,488.00 C67.00,484.98 65.49,481.83 65.07,481.00 C64.66,480.17 63.54,476.80 62.59,473.50 C55.75,449.78 55.64,431.55 62.20,410.00 C64.18,403.49 66.47,399.00 67.79,399.00 C68.52,399.00 73.70,403.56 79.31,409.12 C84.91,414.69 91.97,421.30 95.00,423.81 C103.73,431.05 128.54,455.74 135.90,464.50 C144.11,474.27 147.54,479.27 152.75,489.00 C160.28,503.06 161.50,507.79 161.50,523.00 C161.50,536.49 160.44,542.59 157.19,547.75 ZM 136.46 669.04 C134.89,670.78 133.39,670.99 123.10,670.93 C100.40,670.78 79.83,662.27 63.62,646.31 C55.06,637.89 46.86,625.17 44.08,616.00 C43.33,613.53 42.05,609.47 41.25,607.00 C39.63,602.05 38.35,581.74 39.38,577.61 C40.20,574.35 41.55,574.33 46.26,577.53 C48.30,578.92 57.52,583.93 66.74,588.67 C86.12,598.63 98.26,605.69 105.90,611.44 C108.88,613.67 113.24,616.95 115.61,618.73 C121.04,622.80 129.05,632.83 132.61,640.00 C137.51,649.88 139.59,665.58 136.46,669.04 Z" fill="rgba(0,80,58,1)"/>
<path d="M 485.00 812.02 C485.00,812.56 484.44,812.95 483.75,812.88 C479.30,812.46 472.47,810.79 466.00,808.53 C461.88,807.09 457.87,805.70 457.11,805.43 C456.34,805.17 455.95,804.72 456.24,804.43 C456.52,804.14 461.87,805.22 468.13,806.82 C474.38,808.42 480.74,810.03 482.25,810.39 C483.76,810.75 485.00,811.48 485.00,812.02 Z" fill="rgba(2,123,142,1)"/>
<path d="M 131.79 616.91 C133.16,618.35 134.56,619.91 135.29,620.84 C137.48,623.62 141.78,623.44 143.40,620.50 C144.00,619.40 144.75,618.28 145.06,618.00 C145.36,617.72 146.16,612.10 146.84,605.50 C146.98,604.17 147.14,602.70 147.31,601.15 C146.72,607.45 146.45,613.27 146.14,622.50 L 145.50 641.50 L 139.22 629.35 C136.07,623.25 133.86,619.50 131.79,616.91 ZM 594.86 222.34 C592.42,225.51 590.76,227.54 590.43,227.66 C588.26,228.50 586.57,233.78 587.95,235.44 C589.16,236.90 594.69,238.61 596.50,238.09 C597.05,237.94 604.25,236.31 612.50,234.49 C620.75,232.67 635.83,229.22 646.00,226.84 C628.85,230.86 605.53,236.16 590.00,239.56 C586.42,240.35 582.90,241.22 582.17,241.49 C580.22,242.23 572.95,240.89 573.56,239.91 C573.84,239.44 578.14,236.25 583.10,232.82 C588.31,229.22 590.68,227.47 594.86,222.34 ZM 162.22 482.17 C165.90,491.25 168.71,495.00 171.77,495.00 C174.68,495.00 178.47,490.09 180.94,483.13 C182.06,479.95 182.70,478.20 184.57,474.73 C182.72,478.72 179.94,485.97 177.71,492.75 C174.95,501.14 172.42,508.00 172.10,508.00 C171.77,508.00 170.24,504.29 168.70,499.75 C167.26,495.51 164.44,487.86 162.22,482.17 ZM 260.83 331.20 C261.55,338.51 262.00,343.91 262.00,345.43 C262.00,351.18 264.04,355.00 267.11,355.00 C270.87,355.00 274.78,352.06 283.06,343.00 C286.08,339.69 289.29,336.60 292.82,333.59 C288.51,337.34 284.05,341.93 276.84,349.75 C268.59,358.69 261.40,366.00 260.86,366.00 C260.31,366.00 260.12,364.57 260.42,362.75 C261.87,354.09 262.09,346.12 260.83,331.20 ZM 421.77 239.46 C416.67,251.04 417.08,253.03 422.00,256.11 C424.05,257.40 425.41,257.42 437.99,254.71 C427.68,257.09 419.07,259.49 416.65,260.70 C413.98,262.04 411.60,262.93 411.35,262.68 C411.10,262.44 413.33,257.12 416.30,250.87 C418.47,246.30 420.24,242.66 421.77,239.46 ZM 442.00 700.02 C442.00,763.07 442.35,795.78 443.03,797.05 C443.59,798.10 445.28,799.63 446.78,800.44 C451.76,803.15 447.62,802.06 428.47,795.64 C426.99,795.14 425.60,794.67 424.29,794.23 C434.05,797.29 437.11,796.95 440.03,793.23 C441.94,790.80 442.00,788.77 442.00,700.02 ZM 191.59 462.78 C193.37,459.83 195.52,456.29 198.12,452.00 C206.31,438.53 207.51,435.98 207.31,432.50 C207.14,429.49 206.42,428.01 204.41,426.50 C203.38,425.73 201.85,424.41 199.98,422.71 C202.85,424.95 204.43,425.27 207.76,425.91 L 214.02 427.11 L 211.14 431.30 C209.13,434.24 199.54,449.71 191.59,462.78 ZM 522.86 541.90 C522.86,542.01 522.86,542.13 522.86,542.24 C522.76,579.55 522.39,595.24 521.61,595.85 C521.00,596.33 505.88,597.25 488.00,597.90 C449.76,599.30 447.39,599.54 444.37,602.54 C447.32,599.59 449.39,599.36 485.81,597.91 C517.14,596.66 515.32,597.11 520.50,589.45 C522.13,587.05 522.45,585.03 522.86,541.90 ZM 148.54 696.30 C147.05,687.82 144.59,684.47 139.08,683.08 C137.11,682.59 128.23,681.88 119.34,681.52 C108.69,681.08 102.65,680.89 97.81,679.97 C102.45,680.84 108.18,681.02 118.15,681.44 C126.59,681.79 134.91,682.30 136.64,682.56 C139.03,682.93 140.54,682.42 142.89,680.44 C144.60,679.00 146.00,678.26 146.00,678.79 C146.00,679.33 146.92,685.78 148.05,693.13 C148.21,694.15 148.37,695.21 148.54,696.30 ZM 316.73 316.39 C318.18,314.51 320.00,310.20 320.00,308.16 C320.00,307.46 318.72,303.66 316.96,299.05 C319.44,304.89 320.43,305.94 323.31,307.35 L 327.09 309.21 L 321.12 313.35 C320.06,314.09 318.53,315.14 316.73,316.39 ZM 735.79 642.84 C725.84,642.15 715.43,641.40 709.79,640.97 C696.82,639.97 695.87,640.03 692.08,641.96 C689.88,643.08 687.84,644.00 687.55,644.00 C687.47,644.00 687.39,640.45 687.30,634.11 L 689.90 636.89 C691.81,638.94 693.77,640.01 695.65,640.02 C697.22,640.04 704.12,640.49 711.00,641.03 C716.12,641.44 726.06,642.16 735.79,642.84 ZM 150.63 575.70 C150.90,572.46 150.51,571.25 149.42,568.83 C147.25,564.00 145.02,562.28 134.14,558.67 C141.98,561.11 148.80,563.00 149.86,563.00 C152.34,563.00 152.43,563.23 150.63,575.70 ZM 474.39 246.70 C480.25,245.17 482.33,243.49 485.35,238.69 C486.83,236.35 487.03,234.41 486.58,221.51 C486.61,221.99 486.63,222.49 486.65,223.00 C487.18,233.73 487.31,242.86 486.96,243.29 C486.56,243.79 484.90,244.33 474.39,246.70 ZM 687.00 598.04 C686.90,581.54 686.82,561.70 686.76,540.41 L 686.53 449.91 C686.83,465.99 687.00,496.84 687.00,536.96 L 687.00 598.04 ZM 581.59 329.64 C577.41,322.78 573.73,316.74 571.83,313.63 C561.55,296.74 560.46,296.28 534.86,297.95 C532.70,298.09 530.79,298.22 529.03,298.34 C537.69,297.48 546.66,297.00 555.03,297.00 L 561.74 297.00 L 569.79 310.25 C572.41,314.56 576.86,321.88 581.59,329.64 ZM 485.00 812.02 C485.00,811.48 483.76,810.75 482.25,810.39 C480.74,810.03 474.38,808.42 468.13,806.82 C467.35,806.62 466.59,806.43 465.84,806.25 C467.34,806.60 468.95,806.98 470.61,807.39 C478.25,809.29 486.30,811.23 488.50,811.71 C494.75,813.06 491.66,813.61 484.50,812.76 C484.80,812.61 485.00,812.34 485.00,812.02 ZM 684.39 435.11 L 684.28 435.03 C683.26,434.20 680.11,433.62 671.04,433.16 C678.57,433.42 682.44,433.70 683.00,434.00 C683.45,434.24 683.93,434.64 684.39,435.11 ZM 434.07 204.60 C429.88,220.79 428.38,224.90 425.85,230.49 C428.56,224.02 430.70,217.39 434.07,204.60 ZM 311.23 284.68 L 311.16 284.50 L 309.07 256.50 C307.92,241.10 306.98,226.21 306.99,223.41 C307.00,219.61 309.42,211.30 316.62,190.41 C309.42,211.32 307.00,219.61 306.99,223.41 C306.98,226.21 307.94,241.21 309.12,256.75 L 311.23 284.68 ZM 486.25 204.50 C486.30,200.58 486.49,197.76 486.80,196.50 C487.04,195.54 487.46,193.96 487.94,192.12 C486.94,196.45 486.42,200.05 486.25,204.50 ZM 625.19 180.00 C624.50,181.22 622.90,183.63 620.76,186.74 C623.78,182.19 626.19,178.06 629.48,171.87 C627.31,176.05 625.75,179.01 625.19,180.00 ZM 73.10 386.83 C77.68,390.30 87.61,400.16 115.08,427.74 L 157.67 470.50 L 160.74 478.39 L 157.64 470.50 L 115.07 427.74 C87.61,400.16 77.68,390.30 73.10,386.83 ZM 528.04 432.80 L 527.05 433.79 L 525.16 435.68 C525.44,435.14 525.68,434.66 525.99,434.24 C526.43,433.66 527.01,433.18 528.04,432.80 ZM 298.72 328.88 C300.06,327.87 301.46,326.85 302.91,325.84 C306.74,323.16 310.36,320.70 312.79,319.10 C309.78,321.18 306.47,323.45 303.49,325.50 C301.74,326.70 300.18,327.80 298.72,328.88 ZM 436.97 321.49 C443.43,318.67 447.83,316.84 453.99,314.89 C448.50,316.69 443.33,318.72 436.97,321.49 ZM 401.73 784.83 C394.68,781.22 385.56,776.09 370.64,767.62 C385.35,775.97 394.75,781.22 401.73,784.83 ZM 151.41 715.05 C150.91,711.82 150.21,707.20 149.59,703.11 C150.31,707.83 151.00,712.32 151.42,715.07 C152.13,719.70 153.72,725.25 156.81,733.64 C153.72,725.24 152.12,719.66 151.41,715.05 ZM 507.20 301.51 C504.42,302.11 501.24,302.84 497.46,303.74 C498.93,303.38 500.44,303.02 502.00,302.65 C503.65,302.25 505.39,301.87 507.20,301.51 ZM 125.87 556.02 C121.55,554.62 118.51,553.48 115.20,551.84 C118.38,553.40 121.45,554.56 125.87,556.02 ZM 456.22 804.45 C455.96,804.73 456.35,805.17 457.11,805.43 C457.87,805.70 461.88,807.09 466.00,808.53 C466.59,808.74 467.18,808.94 467.78,809.14 C467.14,808.94 466.54,808.74 466.00,808.55 C461.88,807.10 457.87,805.70 457.11,805.43 C456.34,805.17 455.94,804.73 456.21,804.45 C456.22,804.45 456.22,804.45 456.22,804.45 ZM 474.34 309.36 C478.07,308.43 482.31,307.39 487.19,306.21 C483.39,307.13 479.14,308.18 474.34,309.36 ZM 46.76 562.10 C49.59,563.17 76.91,578.21 87.89,584.74 C90.45,586.26 94.68,589.08 99.51,592.43 C94.58,589.02 90.35,586.20 87.99,584.80 C76.95,578.23 49.60,563.18 46.76,562.10 ZM 251.60 267.00 C252.79,270.99 253.68,274.55 254.53,279.20 C253.67,274.53 252.78,270.95 251.60,267.00 Z" fill="rgba(59,143,140,1)"/>
<path d="M 508.00 962.33 C505.69,961.96 491.46,960.02 443.00,953.45 C408.39,948.75 408.14,948.69 368.00,935.46 C333.82,924.20 327.98,921.96 316.00,915.53 C308.58,911.55 296.42,905.05 289.00,901.09 C278.56,895.53 272.66,891.51 263.00,883.39 C256.12,877.60 246.87,869.86 242.43,866.19 C237.99,862.51 230.93,856.65 226.74,853.16 C219.73,847.32 210.83,836.20 191.20,808.77 C189.93,807.00 187.16,803.29 185.03,800.53 C182.55,797.31 179.14,790.29 175.55,781.00 C172.47,773.03 169.53,765.60 169.02,764.50 C168.52,763.40 164.65,753.76 160.42,743.07 C154.88,729.05 152.37,721.25 151.42,715.07 C150.70,710.36 149.18,700.48 148.05,693.13 C146.92,685.78 146.00,679.33 146.00,678.79 C146.00,678.26 144.60,679.00 142.89,680.44 C140.54,682.42 139.03,682.93 136.64,682.56 C134.91,682.30 126.59,681.79 118.15,681.44 C93.38,680.41 94.74,680.81 74.12,668.46 L 55.87 657.53 L 47.12 645.52 C42.30,638.91 37.37,632.07 36.16,630.32 C34.95,628.57 32.31,622.27 30.29,616.32 C26.79,605.99 26.60,604.77 26.22,589.53 C25.80,572.71 26.66,566.80 29.76,565.44 C35.19,563.05 44.46,561.23 46.76,562.10 C49.60,563.18 76.95,578.23 87.99,584.80 C95.23,589.10 120.09,606.79 128.72,613.77 C131.89,616.34 134.50,620.22 139.22,629.35 L 145.50 641.50 L 146.14 622.50 C146.76,604.08 147.21,599.24 150.44,577.00 C152.44,563.24 152.43,563.00 149.86,563.00 C148.69,563.00 140.51,560.71 131.69,557.90 C116.29,553.01 114.98,552.37 98.51,541.87 L 81.37 530.93 L 68.19 511.22 C60.95,500.37 54.56,490.15 54.00,488.50 C51.56,481.30 45.92,461.32 45.40,458.06 C45.10,456.10 45.56,448.20 46.43,440.50 C49.94,409.49 51.87,394.41 52.57,392.64 C53.55,390.15 64.61,385.00 69.00,384.99 C72.28,384.99 75.12,387.62 115.07,427.74 L 157.64 470.50 L 161.77 481.00 C164.04,486.77 167.16,495.21 168.70,499.75 C170.24,504.29 171.77,508.00 172.10,508.00 C172.42,508.00 174.95,501.14 177.71,492.75 C180.47,484.36 184.07,475.25 185.72,472.50 C193.84,458.92 208.58,435.03 211.14,431.30 L 214.02 427.11 L 207.76 425.91 C201.54,424.72 201.42,424.63 187.66,411.11 C180.06,403.62 172.36,395.25 170.56,392.50 C153.14,365.84 153.58,366.72 146.63,344.89 L 141.02 327.28 L 141.98 298.39 C143.36,257.42 143.18,258.72 149.71,242.00 C155.44,227.31 155.97,226.41 179.30,191.75 C181.42,188.59 183.62,186.00 184.18,186.00 C184.74,186.00 189.61,181.73 195.00,176.50 C206.77,165.09 207.99,164.81 217.68,171.12 L 224.00 175.24 L 228.44 189.37 C230.87,197.14 236.31,215.20 240.52,229.50 C244.73,243.80 249.72,260.67 251.60,267.00 C254.43,276.52 255.64,283.85 258.58,309.50 C262.07,339.85 262.44,350.63 260.42,362.75 C260.12,364.57 260.31,366.00 260.86,366.00 C261.40,366.00 268.59,358.69 276.84,349.75 C289.50,336.03 293.65,332.25 303.49,325.50 C309.89,321.10 317.83,315.63 321.12,313.35 L 327.09 309.21 L 323.31 307.35 C319.89,305.68 319.13,304.52 315.39,295.25 L 311.25 284.99 L 309.12 256.75 C307.94,241.21 306.98,226.21 306.99,223.41 C307.00,219.61 309.42,211.32 316.62,190.41 C321.90,175.06 326.44,161.57 326.69,160.44 C326.95,159.31 328.81,156.31 330.83,153.77 C336.60,146.51 358.46,121.78 361.63,118.91 C364.16,116.63 399.11,97.38 415.50,89.24 C421.70,86.16 437.40,82.00 442.84,82.00 C447.60,82.00 456.72,85.82 459.07,88.81 C461.88,92.37 461.82,92.74 451.46,134.72 C427.57,231.54 431.24,219.42 416.30,250.87 C413.33,257.12 411.10,262.44 411.35,262.68 C411.60,262.93 413.98,262.04 416.65,260.70 C419.45,259.30 430.57,256.30 443.00,253.59 C482.38,245.01 486.31,244.09 486.96,243.29 C487.31,242.86 487.18,233.73 486.65,223.00 C485.65,202.36 485.98,198.61 490.06,184.00 C491.21,179.88 492.80,173.93 493.59,170.78 C494.38,167.63 498.84,158.16 503.53,149.65 C511.06,135.99 513.51,132.58 524.90,119.86 C531.97,111.96 539.05,104.32 540.63,102.88 C542.21,101.43 555.04,93.98 569.15,86.32 L 594.80 72.38 L 612.15 70.61 C621.69,69.63 634.89,68.20 641.47,67.42 C648.05,66.64 656.25,66.00 659.68,66.00 L 665.93 66.00 L 672.96 72.76 C678.06,77.66 680.00,80.23 680.00,82.07 C680.00,85.01 676.57,89.99 671.11,95.00 C667.01,98.76 664.55,103.18 641.99,147.50 C623.62,183.60 625.13,181.06 607.38,205.54 C592.58,225.95 591.86,226.76 583.10,232.82 C578.14,236.25 573.84,239.44 573.56,239.91 C572.95,240.89 580.22,242.23 582.17,241.49 C582.90,241.22 586.42,240.35 590.00,239.56 C605.53,236.16 628.85,230.86 646.00,226.84 L 664.50 222.50 L 695.50 222.28 L 726.50 222.05 L 749.50 226.88 L 772.50 231.71 L 797.00 242.96 C810.47,249.15 826.00,256.23 831.50,258.69 C857.71,270.42 857.54,270.30 887.00,295.75 L 914.50 319.50 L 939.27 356.50 C952.91,376.87 964.98,395.97 966.13,399.00 C975.04,422.49 980.87,439.42 981.80,444.50 C988.17,479.27 991.00,495.97 991.00,498.77 C991.00,503.23 989.68,505.48 986.23,506.91 C983.21,508.15 991.90,510.22 797.88,462.07 C771.14,455.44 746.84,448.92 743.88,447.59 C740.92,446.26 728.15,440.81 715.50,435.48 C661.75,412.80 669.13,416.73 644.61,397.77 C641.25,395.18 636.03,391.26 633.00,389.07 C629.97,386.87 622.37,381.13 616.09,376.29 L 604.69 367.50 L 591.26 345.50 C583.88,333.40 574.22,317.54 569.79,310.25 L 561.74 297.00 L 555.03 297.00 C537.10,297.00 516.34,299.21 502.00,302.65 C456.16,313.64 452.62,314.66 436.97,321.49 C413.28,331.84 410.11,333.58 386.50,349.20 C365.51,363.08 363.80,364.46 349.36,379.13 C336.85,391.82 332.30,397.31 323.23,410.65 L 312.25 426.79 L 298.02 468.15 C283.16,511.33 282.72,513.05 279.03,542.50 C277.86,551.85 276.39,562.65 275.76,566.50 C274.19,576.17 274.37,588.75 276.45,614.50 C278.18,635.92 278.37,636.98 283.66,654.50 C291.66,681.01 291.50,680.66 306.39,704.73 C320.05,726.82 320.22,727.04 332.82,738.83 C352.53,757.27 352.78,757.47 370.64,767.62 C405.89,787.63 408.79,789.04 428.47,795.64 C447.62,802.06 451.76,803.15 446.78,800.44 C445.28,799.63 443.59,798.10 443.03,797.05 C442.35,795.78 442.00,763.07 442.00,700.02 L 442.00 604.91 L 444.31 602.60 C447.37,599.54 449.54,599.31 488.00,597.90 C505.88,597.25 521.00,596.33 521.61,595.85 C522.39,595.24 522.76,579.55 522.86,542.24 C522.94,513.23 523.30,477.58 523.66,463.02 L 524.31 436.53 L 527.05 433.79 L 529.80 431.05 L 578.65 431.55 C666.05,432.44 681.73,432.96 684.28,435.03 L 686.50 436.82 L 686.76 540.41 C686.91,597.39 687.26,644.00 687.55,644.00 C687.84,644.00 689.88,643.08 692.08,641.96 C695.87,640.03 696.82,639.97 709.79,640.97 C717.33,641.55 733.40,642.69 745.50,643.51 C774.16,645.46 775.61,645.69 777.97,648.69 C780.25,651.59 780.68,654.41 782.01,675.50 C783.69,702.10 780.80,696.81 807.41,722.00 L 830.58 743.93 L 840.95 765.71 C853.04,791.11 852.89,790.30 851.09,819.41 C849.82,839.96 852.13,834.31 832.14,865.89 C823.13,880.12 819.59,884.86 816.50,886.85 C814.30,888.26 797.20,899.01 778.50,910.72 L 744.50 932.01 L 717.12 941.04 C702.06,946.01 687.66,950.51 685.12,951.03 C682.58,951.55 669.92,953.33 657.00,954.97 C644.08,956.62 624.72,959.09 614.00,960.48 C595.67,962.84 591.98,962.99 552.50,962.86 C529.40,962.79 509.38,962.55 508.00,962.33 ZM 605.50 949.21 C621.22,947.89 637.93,946.07 640.04,945.45 C640.89,945.20 644.94,944.51 649.04,943.92 C667.07,941.31 679.10,938.99 688.00,936.43 C720.30,927.12 736.81,920.95 758.09,910.21 C794.43,891.87 819.05,870.41 832.00,845.77 C840.81,829.00 843.39,809.37 838.92,793.00 C837.79,788.88 836.52,784.15 836.09,782.50 C834.86,777.83 830.41,768.93 824.06,758.50 C820.38,752.44 810.04,740.28 802.36,732.98 C793.93,724.96 782.48,715.00 781.70,715.00 C781.38,715.00 783.32,719.61 786.02,725.25 C792.04,737.86 794.50,745.64 796.13,757.14 C799.00,777.42 791.40,796.35 775.12,809.46 C755.88,824.96 727.46,834.47 685.00,839.62 C673.82,840.98 662.82,841.38 637.00,841.38 C600.62,841.37 587.75,840.52 539.50,834.91 C521.33,832.80 516.14,832.04 509.00,830.45 C504.88,829.54 499.48,828.41 497.00,827.95 C481.49,825.04 465.51,821.28 462.76,819.88 C461.81,819.40 460.37,819.00 459.58,819.00 C458.20,819.00 443.81,814.74 439.50,813.06 C438.40,812.63 435.70,811.71 433.50,811.03 C428.05,809.32 416.89,805.10 414.76,803.95 C413.81,803.43 412.58,803.00 412.04,803.00 C410.89,803.00 403.55,799.70 389.50,792.89 C375.84,786.26 368.61,782.25 361.30,777.24 C357.90,774.91 354.81,773.00 354.44,773.00 C354.07,773.00 352.30,771.76 350.51,770.25 C348.72,768.74 344.38,765.27 340.87,762.54 C331.39,755.16 315.73,739.64 308.04,730.00 C290.99,708.65 278.91,684.55 271.18,656.50 C262.68,625.62 260.62,580.63 266.03,544.00 C266.64,539.88 267.60,533.35 268.18,529.50 C269.29,522.03 273.49,500.81 274.99,495.00 C280.25,474.74 285.00,459.00 289.17,448.00 C293.21,437.36 307.47,410.66 313.20,403.00 C326.29,385.52 331.30,379.61 342.45,368.50 C357.08,353.92 362.07,349.83 380.01,337.65 C400.46,323.77 427.24,310.65 453.00,301.89 C465.17,297.74 466.36,297.39 478.00,294.51 C483.77,293.07 490.08,291.51 492.00,291.03 C497.85,289.58 525.87,285.12 536.50,283.95 C542.00,283.34 552.98,282.99 560.91,283.17 L 575.32 283.50 L 576.57 287.50 C577.26,289.70 578.35,293.30 579.00,295.50 C581.18,302.97 585.43,313.48 588.89,320.00 C590.79,323.58 592.83,327.51 593.42,328.74 C594.01,329.98 594.84,330.99 595.25,330.99 C595.66,331.00 596.00,331.46 596.00,332.02 C596.00,337.34 621.79,366.30 638.00,379.19 C644.80,384.59 659.57,395.00 660.45,395.00 C660.81,395.00 663.66,396.64 666.79,398.64 C687.50,411.89 727.28,428.49 767.00,440.45 C779.32,444.16 786.72,446.18 800.00,449.48 C807.97,451.47 816.08,453.50 818.00,454.01 C821.47,454.92 839.89,459.09 849.50,461.14 C852.25,461.73 857.20,462.81 860.50,463.54 C867.28,465.05 880.72,467.93 895.50,471.06 C913.15,474.79 942.43,481.85 949.50,484.09 C962.85,488.30 969.05,490.49 972.37,492.19 C974.78,493.42 976.59,493.81 977.18,493.22 C977.76,492.64 977.51,488.56 976.49,482.39 C975.59,476.95 974.49,470.02 974.04,467.00 C973.34,462.36 970.85,452.18 967.06,438.50 C958.98,409.35 938.04,368.59 919.54,346.00 C917.06,342.98 913.28,338.25 911.14,335.50 C906.42,329.46 884.59,307.81 877.15,301.82 C874.21,299.44 869.71,295.80 867.15,293.72 C862.46,289.91 840.42,275.00 839.47,275.00 C839.19,275.00 837.28,273.95 835.23,272.66 C831.13,270.10 815.54,262.09 810.00,259.70 C808.08,258.87 804.47,257.28 802.00,256.17 C797.46,254.13 779.63,247.79 775.00,246.57 C764.68,243.85 761.57,243.09 754.50,241.58 C750.10,240.64 745.60,239.63 744.50,239.33 C739.56,237.98 729.06,236.90 710.88,235.87 C680.11,234.13 647.40,236.74 626.24,242.63 C623.08,243.51 619.15,244.43 617.50,244.68 C615.85,244.93 613.60,245.49 612.50,245.92 C608.80,247.37 603.52,249.17 601.50,249.67 C600.40,249.94 598.60,250.54 597.50,251.01 C592.60,253.06 587.40,253.35 553.00,253.51 C520.69,253.66 514.89,253.94 502.50,255.90 C488.69,258.09 480.30,259.41 470.50,260.94 C465.17,261.77 448.48,265.50 443.50,266.97 C441.85,267.46 438.48,268.41 436.00,269.08 C430.98,270.42 412.61,276.62 409.50,278.01 C408.40,278.50 400.75,281.87 392.50,285.49 C384.25,289.12 375.92,293.13 374.00,294.42 C372.08,295.70 367.85,298.02 364.60,299.57 C361.36,301.11 357.53,303.32 356.10,304.47 C354.67,305.61 352.15,307.21 350.50,308.02 C346.87,309.79 336.95,315.96 335.35,317.44 C334.71,318.02 331.62,320.30 328.47,322.50 C322.77,326.48 320.40,328.31 308.00,338.27 C299.61,345.01 260.07,384.54 253.25,393.00 C250.37,396.58 245.79,402.42 243.07,406.00 C240.35,409.58 237.03,413.85 235.68,415.50 C232.22,419.75 215.00,446.81 215.00,448.01 C215.00,448.55 214.60,449.00 214.12,449.00 C213.63,449.00 212.98,449.79 212.67,450.75 C212.36,451.71 210.66,454.98 208.89,458.00 C204.93,464.77 192.04,490.21 192.02,491.29 C192.01,491.72 190.37,495.77 188.39,500.29 C183.55,511.28 183.33,511.81 181.58,517.00 C178.74,525.43 177.37,528.96 176.69,529.65 C176.31,530.02 176.00,531.58 176.00,533.11 C176.00,534.63 175.55,536.16 175.00,536.50 C174.45,536.84 174.00,537.85 174.00,538.75 C174.00,539.65 172.84,544.23 171.43,548.94 C168.43,558.88 167.57,562.29 165.99,570.50 C165.36,573.80 164.37,578.53 163.81,581.00 C160.17,596.96 158.59,616.54 158.62,645.50 C158.65,676.80 159.95,691.17 164.49,710.50 C165.39,714.35 166.52,719.30 166.99,721.50 C169.02,730.95 174.87,748.79 178.56,756.78 C179.90,759.68 181.00,762.45 181.00,762.93 C181.00,763.88 182.55,767.18 188.54,779.00 C198.10,797.90 204.01,807.25 216.62,823.50 C222.88,831.56 245.54,854.33 254.13,861.20 C275.94,878.62 294.07,890.06 319.00,902.13 C328.08,906.53 336.40,910.49 337.50,910.95 C348.69,915.58 359.81,919.68 371.50,923.48 C389.53,929.35 390.29,929.58 398.00,931.50 C401.58,932.39 405.85,933.53 407.50,934.04 C415.88,936.60 437.48,940.87 455.50,943.52 C457.70,943.85 463.55,944.74 468.50,945.51 C473.45,946.27 483.58,947.39 491.00,948.00 C498.42,948.60 507.42,949.46 511.00,949.91 C520.05,951.06 589.72,950.54 605.50,949.21 ZM 670.36 817.36 L 675.01 816.73 L 674.75 631.11 L 674.50 445.50 L 604.82 445.24 L 535.15 444.99 L 534.52 450.24 C533.46,459.05 534.38,587.78 535.50,588.86 C536.46,589.78 546.33,591.24 563.50,593.01 C578.47,594.56 599.93,597.39 605.75,598.58 L 608.00 599.04 L 608.00 707.85 C608.00,767.70 608.30,816.97 608.67,817.33 C609.52,818.18 664.18,818.21 670.36,817.36 ZM 594.75 712.23 L 595.01 607.99 L 524.75 608.24 L 454.50 608.50 L 454.24 699.24 C453.99,788.52 454.02,790.02 455.97,791.97 C457.06,793.06 459.20,794.21 460.72,794.52 C462.25,794.84 465.08,795.51 467.00,796.01 C468.92,796.52 475.45,798.09 481.50,799.51 C487.55,800.93 494.08,802.50 496.00,803.01 C497.92,803.51 500.85,804.12 502.50,804.37 C511.11,805.65 531.04,809.13 534.76,810.00 C537.11,810.55 540.48,811.01 542.26,811.02 C544.04,811.03 549.10,811.66 553.50,812.42 C557.90,813.19 568.03,814.35 576.00,815.01 C583.97,815.68 590.70,816.41 590.95,816.64 C591.20,816.88 592.10,816.93 592.95,816.77 C594.34,816.50 594.53,805.42 594.75,712.23 ZM 706.27 812.53 C734.25,806.87 750.45,800.19 761.71,789.65 L 768.11 783.67 L 767.80 719.42 C767.64,684.08 767.25,654.92 766.95,654.61 C766.65,654.31 750.27,654.02 730.55,653.96 C705.00,653.89 694.51,654.18 694.01,654.98 C693.23,656.24 692.38,681.44 691.01,744.00 C690.50,767.38 689.78,792.91 689.41,800.75 L 688.73 815.00 L 691.38 815.00 C692.84,815.00 699.54,813.89 706.27,812.53 ZM 488.50 811.71 C486.30,811.23 478.25,809.29 470.61,807.39 C462.97,805.50 456.49,804.18 456.21,804.45 C455.94,804.73 456.34,805.17 457.11,805.43 C457.87,805.70 461.88,807.10 466.00,808.55 C470.12,810.00 477.33,811.74 482.00,812.42 C490.87,813.72 495.43,813.21 488.50,811.71 ZM 136.46 669.04 C139.59,665.58 137.51,649.88 132.61,640.00 C129.05,632.83 121.04,622.80 115.61,618.73 C113.24,616.95 108.88,613.67 105.90,611.44 C98.26,605.69 86.12,598.63 66.74,588.67 C57.52,583.93 48.30,578.92 46.26,577.53 C41.55,574.33 40.20,574.35 39.38,577.61 C38.35,581.74 39.63,602.05 41.25,607.00 C42.05,609.47 43.33,613.53 44.08,616.00 C46.86,625.17 55.06,637.89 63.62,646.31 C79.83,662.27 100.40,670.78 123.10,670.93 C133.39,670.99 134.89,670.78 136.46,669.04 ZM 157.19 547.75 C160.44,542.59 161.50,536.49 161.50,523.00 C161.50,507.79 160.28,503.06 152.75,489.00 C147.54,479.27 144.11,474.27 135.90,464.50 C128.54,455.74 103.73,431.05 95.00,423.81 C91.97,421.30 84.91,414.69 79.31,409.12 C73.70,403.56 68.52,399.00 67.79,399.00 C66.47,399.00 64.18,403.49 62.20,410.00 C55.64,431.55 55.75,449.78 62.59,473.50 C63.54,476.80 64.66,480.17 65.07,481.00 C65.49,481.83 67.00,484.98 68.44,488.00 C73.84,499.38 76.03,502.83 84.55,513.45 C88.13,517.91 105.46,532.88 107.14,532.97 C107.49,532.99 110.78,534.76 114.46,536.90 C118.13,539.05 123.92,541.80 127.32,543.00 C130.72,544.21 134.40,545.57 135.50,546.03 C136.60,546.49 138.85,547.09 140.50,547.36 C142.15,547.64 145.07,548.30 147.00,548.83 C152.97,550.48 155.65,550.19 157.19,547.75 ZM 220.25 410.80 C229.58,403.41 241.92,384.18 244.83,372.50 C245.38,370.30 246.38,366.70 247.04,364.50 C247.72,362.27 248.45,352.10 248.71,341.50 C249.09,325.56 248.82,320.40 247.08,309.50 C243.86,289.30 244.16,290.64 237.46,266.50 C235.26,258.56 231.58,246.64 226.48,231.00 C223.89,223.02 221.38,215.15 220.92,213.50 C218.39,204.45 214.05,188.15 213.57,185.86 C213.27,184.41 212.37,182.97 211.57,182.67 C209.99,182.06 197.77,191.34 191.87,197.63 C183.77,206.27 173.90,220.78 167.95,232.82 C160.98,246.90 160.85,247.23 158.63,255.00 C153.24,273.95 152.91,276.68 153.28,299.10 C153.64,319.98 154.16,324.26 158.00,337.50 C158.64,339.70 159.40,342.74 159.70,344.26 C159.99,345.78 160.63,347.27 161.12,347.57 C161.60,347.87 162.00,348.75 162.00,349.52 C162.00,352.29 171.25,369.98 177.31,378.82 C183.78,388.25 191.88,397.21 203.43,407.75 C211.59,415.18 214.13,415.65 220.25,410.80 ZM 350.20 295.60 C355.53,293.76 361.22,291.40 362.84,290.37 C379.83,279.55 386.25,273.68 395.47,260.50 C404.92,246.99 411.68,233.02 418.07,213.81 C419.77,208.69 421.54,203.60 422.01,202.50 C422.47,201.40 423.06,199.38 423.32,198.00 C423.79,195.56 425.61,188.61 428.44,178.50 C429.20,175.75 430.37,170.80 431.02,167.50 C431.67,164.20 433.01,157.90 433.99,153.50 C434.98,149.10 436.55,141.90 437.49,137.50 C440.88,121.62 443.14,112.63 445.55,105.45 C446.90,101.43 448.00,97.62 448.00,96.98 C448.00,95.09 435.49,96.58 424.00,99.84 C420.51,100.83 410.31,104.40 406.50,105.96 C401.60,107.96 389.47,114.41 389.17,115.16 C388.98,115.62 388.39,116.00 387.85,116.00 C387.31,116.00 385.39,117.12 383.59,118.50 C381.79,119.88 380.00,121.00 379.61,121.00 C379.23,121.00 377.92,121.95 376.71,123.11 C375.49,124.27 372.25,126.91 369.50,128.97 C354.45,140.28 335.18,167.62 328.59,187.00 C327.75,189.48 326.32,193.52 325.40,196.00 C317.31,217.87 317.64,263.91 326.04,284.50 C326.49,285.60 327.37,288.16 327.99,290.19 C330.98,299.97 334.85,300.91 350.20,295.60 ZM 532.00 247.21 C533.38,246.66 536.53,245.63 539.00,244.91 C545.74,242.98 560.71,235.03 567.50,229.79 C574.91,224.06 588.00,210.67 594.66,202.00 C602.85,191.33 618.00,168.21 618.00,166.39 C618.00,166.07 618.84,164.61 619.88,163.15 C621.60,160.72 630.16,144.54 639.54,126.00 C645.85,113.53 659.16,89.70 661.66,86.41 C666.49,80.03 666.40,80.00 642.51,80.00 C630.42,80.00 618.95,80.48 616.26,81.10 C596.66,85.63 589.85,87.97 576.50,94.74 C566.82,99.65 556.68,106.29 549.57,112.37 C546.27,115.19 542.99,117.95 542.28,118.50 C541.57,119.05 537.74,123.32 533.77,128.00 C529.80,132.68 526.20,136.65 525.78,136.83 C525.35,137.02 525.00,137.61 525.00,138.15 C525.00,138.70 523.07,141.92 520.70,145.32 C514.89,153.68 507.68,168.66 504.49,179.00 C500.01,193.53 498.91,201.26 498.35,222.00 C497.84,241.38 498.82,246.50 503.26,247.44 C504.49,247.71 506.40,248.14 507.50,248.41 C510.76,249.21 529.29,248.30 532.00,247.21 Z" fill="rgba(252,238,217,1)"/>
</g>
</svg>