<?xml version="1.0" encoding="utf-8"?>
<svg xmlns="http://www.w3.org/2000/svg" viewBox="-0.463 -339.9479 700.3405 100.6579" width="700.341px" height="100.658px" preserveAspectRatio="none"><g id="object-11" transform="matrix(1, 0, 0, 1, 0, -1.1368683772161603e-13)"><path d="M 618.052 -337 C 673.323 -337 673.323 -337 686.355 -324.99 C 690.805 -320.31 693.875 -315.36 696.289 -309.38 C 696.584 -308.68 696.878 -307.98 697.181 -307.26 C 701.991 -293.32 699.996 -276.52 694.122 -263.31 C 688.421 -252 680.052 -246.14 668.32 -242 C 652.284 -237.11 634.817 -240.35 618.052 -240.35 C 618.052 -272.24 618.052 -304.14 618.052 -337 Z M 638.302 -257.84 C 652.368 -257.84 660.042 -255.62 670.517 -262.44 C 675.731 -267.36 678.355 -273.91 679.722 -280.85 C 680.921 -293.58 679.247 -303.5 671.323 -313.75 C 663.972 -319.51 663.972 -319.51 638.302 -319.51 C 638.302 -298.54 638.302 -278.19 638.302 -257.84 Z" fill="#EFCB49" id="object-0" style=""/><path d="M -0.463 -336.13 C 54.475 -336.13 54.475 -336.13 63.364 -328.52 C 68.309 -323.35 69.787 -318.86 70.007 -311.68 C 69.749 -305.03 68.961 -300.52 64.118 -295.83 C 60.55 -292.93 57.642 -291.26 52.922 -291.03 C 52.922 -290.42 52.922 -289.81 52.922 -289.19 C 53.682 -289.28 54.441 -289.37 55.223 -289.47 C 60.939 -288.97 65.032 -285.67 68.857 -281.54 C 73.09 -276.18 74.653 -270.75 74.413 -263.95 C 73.474 -256.98 70.31 -250.47 64.888 -245.93 C 55.886 -240.25 47.352 -239.21 36.93 -239.3 C 35.502 -239.31 35.502 -239.31 34.046 -239.31 C 30.52 -239.32 26.995 -239.35 23.468 -239.37 C 15.571 -239.4 7.674 -239.44 -0.463 -239.48 C -0.463 -271.38 -0.463 -303.27 -0.463 -336.13 Z M 19.787 -295.63 C 24.754 -295.57 24.754 -295.57 29.623 -295.51 C 31.177 -295.48 31.177 -295.48 32.7 -295.46 C 33.941 -295.46 33.941 -295.46 35.157 -295.45 C 38.784 -295.41 41.348 -295.92 44.638 -297.47 C 47.447 -299.73 49.77 -302.25 50.606 -305.81 C 50.761 -309.9 49.995 -312.76 47.4 -315.88 C 43.073 -319.8 39.574 -319.95 33.829 -319.89 C 32.693 -319.86 31.589 -319.82 30.487 -319.79 C 25.083 -319.67 25.083 -319.67 19.787 -319.56 C 19.787 -311.43 19.787 -303.53 19.787 -295.63 Z M 19.787 -256.05 C 25.945 -255.99 25.945 -255.99 31.982 -255.93 C 33.285 -255.91 34.549 -255.9 35.812 -255.89 C 36.842 -255.88 37.843 -255.88 38.842 -255.87 C 44.295 -255.82 46.777 -256.52 50.851 -260.14 C 53.039 -262.87 53.29 -265.13 53.383 -268.59 C 53.339 -272.44 52.902 -274.47 50.161 -277.22 C 45.192 -281.62 40.801 -282.32 34.269 -282.24 C 32.533 -282.17 32.533 -282.17 30.832 -282.11 C 27.076 -282.01 23.432 -281.92 19.787 -281.82 C 19.787 -273.06 19.787 -264.56 19.787 -256.05 Z" style="fill: rgb(0, 85, 130);" id="object-1"/><path d="M 254.707 -310.41 C 259.094 -307.25 261.388 -303.45 262.764 -298.21 C 263.372 -298.21 263.979 -298.21 264.605 -298.21 C 264.861 -299.15 264.861 -299.15 265.123 -300.1 C 268.022 -306.02 272.89 -309.93 278.976 -312.33 C 285.701 -314.18 292.443 -313.21 298.661 -310.17 C 304.374 -306.69 307.548 -301.7 309.706 -295.45 C 310.295 -291.04 310.245 -286.7 310.156 -282.26 C 310.147 -281.01 310.141 -279.77 310.136 -278.52 C 310.119 -275.28 310.074 -272.03 310.022 -268.78 C 309.975 -265.46 309.954 -262.13 309.931 -258.8 C 309.882 -252.3 309.801 -245.8 309.706 -239.29 C 303.328 -239.29 296.949 -239.29 290.377 -239.29 C 290.363 -240.77 290.351 -242.25 290.337 -243.78 C 290.283 -249.28 290.212 -254.78 290.136 -260.28 C 290.105 -262.66 290.079 -265.04 290.059 -267.42 C 290.027 -270.83 289.98 -274.26 289.928 -277.67 C 289.922 -278.74 289.916 -279.81 289.91 -280.9 C 289.892 -281.9 289.874 -282.89 289.854 -283.91 C 289.844 -284.79 289.834 -285.66 289.824 -286.56 C 289.386 -289.47 288.408 -291.22 286.696 -293.61 C 282.981 -295.83 278.953 -296 274.73 -295.45 C 271.182 -293.9 269.702 -292.56 268.287 -289 C 267.988 -286.62 267.988 -286.62 267.993 -284.01 C 267.975 -283.02 267.956 -282.03 267.938 -281 C 267.927 -279.94 267.917 -278.87 267.906 -277.76 C 267.888 -276.67 267.87 -275.57 267.851 -274.44 C 267.796 -270.94 267.754 -267.43 267.712 -263.92 C 267.677 -261.54 267.641 -259.16 267.604 -256.78 C 267.515 -250.95 267.438 -245.13 267.366 -239.29 C 260.988 -239.29 254.609 -239.29 248.037 -239.29 C 248.034 -240.81 248.03 -242.31 248.026 -243.87 C 248.006 -249.47 247.956 -255.07 247.896 -260.67 C 247.875 -263.09 247.862 -265.51 247.857 -267.94 C 247.849 -271.42 247.811 -274.91 247.768 -278.39 C 247.771 -279.48 247.775 -280.56 247.779 -281.68 C 247.861 -287.83 247.861 -287.83 244.832 -292.88 C 244.067 -293.42 243.302 -293.96 242.515 -294.53 C 242.211 -294.83 241.907 -295.13 241.594 -295.45 C 237.706 -295.86 234.297 -295.85 230.664 -294.35 C 227.788 -291.89 226.156 -289.45 225.579 -285.67 C 225.569 -284.82 225.559 -283.96 225.549 -283.08 C 225.531 -282.1 225.512 -281.13 225.494 -280.12 C 225.485 -278.56 225.485 -278.56 225.475 -276.95 C 225.459 -275.88 225.442 -274.8 225.426 -273.7 C 225.376 -270.26 225.345 -266.83 225.314 -263.4 C 225.283 -261.07 225.252 -258.74 225.219 -256.41 C 225.14 -250.71 225.079 -245 225.026 -239.29 C 218.648 -239.29 212.269 -239.29 205.697 -239.29 C 205.697 -262.98 205.697 -286.68 205.697 -311.09 C 211.468 -311.09 217.239 -311.09 223.185 -311.09 C 223.793 -307.44 224.4 -303.81 225.026 -300.05 C 225.501 -300.84 225.975 -301.64 226.465 -302.46 C 232.996 -312.24 244.01 -316.55 254.707 -310.41 Z" style="fill: rgb(0, 85, 130);" id="object-2"/><path d="M 355.556 -313.75 C 356.28 -313.75 357.005 -313.75 357.75 -313.74 C 366.899 -313.54 374.875 -311.89 381.501 -305.18 C 385.622 -299.85 387.143 -295.56 387.128 -288.82 C 387.128 -287.22 387.128 -287.22 387.128 -285.58 C 387.123 -284.43 387.118 -283.28 387.113 -282.1 C 387.112 -280.91 387.11 -279.74 387.11 -278.52 C 387.106 -275.39 387.097 -272.26 387.087 -269.13 C 387.077 -265.94 387.073 -262.74 387.068 -259.55 C 387.059 -253.28 387.042 -247.01 387.023 -240.75 C 380.948 -240.75 374.873 -240.75 368.614 -240.75 C 368.311 -243.78 368.007 -246.82 367.694 -249.95 C 366.935 -248.97 366.175 -247.98 365.393 -246.96 C 362.259 -242.89 357.855 -240.39 352.809 -239.47 C 350.737 -239.31 348.716 -239.27 346.639 -239.31 C 345.915 -239.32 345.19 -239.33 344.444 -239.34 C 337.729 -239.59 332.335 -241.05 327.53 -245.98 C 322.739 -252.15 321.724 -258.87 322.593 -266.52 C 324.381 -272.54 328.065 -276.39 333.475 -279.42 C 339.598 -282.38 345.695 -283.26 352.392 -284.13 C 354.529 -284.41 356.664 -284.7 358.799 -285 C 359.735 -285.12 360.67 -285.24 361.634 -285.36 C 364.217 -285.74 364.217 -285.74 366.773 -287.69 C 367.324 -291.23 367.058 -292.78 365.106 -295.81 C 362.211 -298.7 359.78 -298.9 355.843 -298.96 C 351.944 -298.94 349.705 -298.37 346.524 -295.98 C 345.916 -295.98 345.309 -295.98 344.683 -295.98 C 343.772 -293.7 343.772 -293.7 342.842 -291.37 C 340.445 -291.65 338.048 -291.95 335.652 -292.24 C 334.972 -292.32 334.293 -292.4 333.594 -292.48 C 330.723 -292.83 328.105 -293.22 325.355 -294.13 C 325.355 -299.51 328.121 -302.33 331.632 -306.05 C 338.378 -312.4 346.594 -313.82 355.556 -313.75 Z M 358.789 -272.85 C 357.982 -272.69 357.201 -272.54 356.419 -272.39 C 350.109 -271.33 345.164 -269.84 341.002 -264.68 C 340.321 -260.82 340.658 -259.68 342.843 -256.39 C 345.919 -253.77 348.383 -252.44 352.393 -252.2 C 358.381 -252.49 362.248 -255.51 366.314 -259.68 C 368.262 -264.14 368.262 -264.14 367.695 -273.88 C 364.606 -273.88 361.817 -273.41 358.789 -272.85 Z" style="fill: rgb(0, 85, 130);" id="object-3"/><path d="M 459.737 -337.75 C 466.116 -337.75 472.495 -337.75 479.067 -337.75 C 479.37 -320.74 479.674 -303.73 479.987 -286.21 C 486.386 -293.27 486.386 -293.27 492.471 -300.54 C 493.173 -301.37 493.876 -302.2 494.599 -303.06 C 496.592 -305.45 496.592 -305.45 497.936 -308.02 C 499.642 -310.75 501.23 -312.07 503.918 -313.82 C 506.507 -314.3 506.507 -314.3 509.294 -314.33 C 510.292 -314.35 511.29 -314.36 512.319 -314.38 C 516.892 -314.32 521.447 -314.14 526.009 -313.82 C 522.433 -308.93 518.687 -304.27 514.676 -299.73 C 509.739 -294.08 504.935 -288.37 500.237 -282.52 C 505.094 -272.24 512.8 -262.95 519.317 -253.66 C 519.826 -252.93 520.334 -252.21 520.858 -251.46 C 521.808 -250.13 522.769 -248.79 523.743 -247.47 C 526.929 -243.13 526.929 -243.13 526.929 -241.1 C 507.635 -238.49 507.635 -238.49 501.863 -242.56 C 498.399 -246.4 496.137 -250.88 493.935 -255.53 C 492.394 -258.65 490.489 -261.38 488.501 -264.24 C 487.504 -265.73 486.507 -267.23 485.51 -268.72 C 483.238 -267.66 481.784 -266.84 479.987 -265.04 C 479.645 -262.54 479.645 -262.54 479.606 -259.62 C 479.57 -258.56 479.535 -257.48 479.498 -256.37 C 479.47 -255.24 479.441 -254.12 479.412 -252.96 C 479.376 -251.83 479.341 -250.69 479.304 -249.53 C 479.217 -246.72 479.141 -243.91 479.067 -241.1 C 472.688 -241.1 466.309 -241.1 459.737 -241.1 C 459.737 -273 459.737 -304.89 459.737 -337.75 Z" style="fill: rgb(0, 85, 130);" id="object-4"/><path d="M 130.221 -312.01 C 149.357 -312.01 168.493 -312.01 188.209 -312.01 C 188.209 -296.51 188.209 -296.51 183.952 -291.93 C 183.018 -290.87 182.085 -289.81 181.155 -288.75 C 180.656 -288.2 180.157 -287.65 179.643 -287.09 C 176.808 -283.87 174.247 -280.44 171.641 -277.04 C 166.154 -269.95 160.61 -262.91 155.073 -255.86 C 171.931 -255.41 171.931 -255.41 189.129 -254.94 C 189.129 -249.78 189.129 -244.61 189.129 -239.29 C 169.386 -239.29 149.643 -239.29 129.301 -239.29 C 129.301 -252.18 129.301 -252.18 131.16 -255.6 C 132.008 -256.45 132.857 -257.3 133.731 -258.16 C 134.672 -259.15 135.61 -260.15 136.546 -261.14 C 137.027 -261.63 137.509 -262.13 138.006 -262.63 C 140.309 -265.09 142.33 -267.74 144.373 -270.42 C 148.664 -275.95 153.068 -281.38 157.534 -286.78 C 158.013 -287.36 158.492 -287.94 158.985 -288.54 C 159.618 -289.31 159.618 -289.31 160.265 -290.09 C 161.754 -292.08 163.001 -294.23 164.278 -296.37 C 153.039 -296.37 141.8 -296.37 130.221 -296.37 C 130.221 -301.52 130.221 -306.69 130.221 -312.01 Z" style="fill: rgb(0, 85, 130);" id="object-5"/><path d="M 581.235 -335.95 C 587.614 -335.95 593.992 -335.95 600.564 -335.95 C 600.564 -304.04 600.564 -272.16 600.564 -239.29 C 594.186 -239.29 587.807 -239.29 581.235 -239.29 C 581.235 -271.19 581.235 -303.08 581.235 -335.95 Z" fill="#F2CD49" id="object-6" style=""/><path d="M 446.851 -312.01 C 446.851 -306.23 446.851 -300.47 446.851 -294.53 C 440.293 -294.76 440.293 -294.76 438.261 -294.85 C 433.567 -294.93 431.055 -293.86 427.522 -290.85 C 423.112 -285.83 423.287 -281.2 423.28 -274.71 C 423.264 -273.7 423.25 -272.69 423.234 -271.63 C 423.189 -268.41 423.169 -265.19 423.15 -261.96 C 423.124 -259.77 423.097 -257.58 423.067 -255.39 C 422.999 -250.02 422.954 -244.66 422.92 -239.29 C 416.541 -239.29 410.163 -239.29 403.591 -239.29 C 403.591 -262.98 403.591 -286.68 403.591 -311.09 C 409.666 -311.09 415.741 -311.09 422 -311.09 C 422.303 -307.44 422.607 -303.81 422.92 -300.05 C 423.404 -301.24 423.404 -301.24 423.898 -302.46 C 426.481 -306.96 429.868 -309.81 434.368 -312.36 C 438.609 -313.39 442.677 -313.4 446.851 -312.01 Z" style="fill: rgb(0, 85, 130);" id="object-7"/><path d="M 93.404 -312.01 C 99.783 -312.01 106.161 -312.01 112.733 -312.01 C 112.733 -288.01 112.733 -264.01 112.733 -239.29 C 106.355 -239.29 99.976 -239.29 93.404 -239.29 C 93.404 -263.3 93.404 -287.29 93.404 -312.01 Z" style="fill: rgb(0, 85, 130);" id="object-8"/><path d="M 555.463 -260.76 C 558.224 -258.46 558.224 -258.46 560.065 -256.16 C 560.369 -255.86 560.672 -255.56 560.985 -255.24 C 561.481 -251.49 561.845 -247.65 560.022 -244.23 C 557.799 -241.55 556.017 -239.75 552.511 -239.37 C 546.055 -239.19 546.055 -239.19 542.577 -241.14 C 539.918 -244.22 539.062 -246.57 538.55 -250.58 C 539.101 -255.08 541.251 -257.75 544.591 -260.7 C 548.375 -262.14 551.605 -261.93 555.463 -260.76 Z" fill="#EECB4A" id="object-9" style=""/><path d="M 108.131 -339.59 C 110.832 -337.94 112.247 -336.88 113.654 -334.07 C 114.28 -327.8 114.28 -327.8 112.69 -325.03 C 110.531 -322.41 108.825 -320.45 105.381 -320.05 C 101.641 -319.93 99.505 -319.92 96.223 -321.87 C 93.609 -324.73 92.663 -326.45 92.081 -330.28 C 92.647 -334.32 94.25 -335.77 97.086 -338.67 C 100.489 -340.37 104.417 -340.03 108.131 -339.59 Z" style="fill: rgb(0, 85, 130);" id="object-10"/></g></svg>